#!OML:ASF E:/inclinewalkrobotboard/Project1/Captureday1/Session1/subject1.ASF
:FULLY-SPECIFIED
:DEGREES
38
root 0 0 0 1.0393752580544833 -3.672510754519208 1.8303743929122394
lowerback 11.978639196698184 0.8494951621618161 -0.06286144410517377
upperback -4.23051742078952 1.0787525482462528 -0.542797005024521
thorax -11.341357016781037 0.4937929156812483 -0.7840679897680618
lowerneck -5.780077151053138 1.4864304041581633 4.564989798086147
upperneck 18.03442923887336 2.941485881997412 -8.344183478128528
head 6.589102739056388 1.074098920937387 -3.224853800194414
rclavicle 1.9878755645877817E-16 -2.0346453944366374E-15
rhumerus 19.886559143198724 14.34777806531811 -47.73779958646237
rradius 72.23067577545547
rwrist 27.13011419789526
rhand -34.62896876070531 -57.104585630800386
rfingers 7.125020000000035
rthumb -7.782004981800007 -87.15914351546598
lclavicle -1.1873748348667043E-16 -4.4934747342731E-16
lhumerus 21.029449381148783 -12.455071593867906 45.30201268436927
lradius 70.02899378468823
lwrist -22.264546005899884
lhand -44.78301970765922 -70.24521322158171
lfingers 7.125020000000026
lthumb -17.571122836435357 -40.92351138801658
rfemur -24.697111687070983 -2.314884149161623 17.11125103147254
rtibia 54.509124135998405
rfoot -28.994639910478114 -16.654601096968605
rtoes -18.496019494637526
lfemur -25.900467987108915 2.4395178651121316 -18.06375793485844
ltibia 53.19761442987854
lfoot -30.791083093572976 -3.4573959536605057
ltoes -20.87697554338251
39
root 0 0 0 1.0394447296340705 -3.6723718658806104 1.8304115268511194
lowerback 11.978650285557405 0.8495065297514438 -0.06290932702756724
upperback -4.230550921228047 1.0787597995790472 -0.5428237224442585
thorax -11.34140106352981 0.4937971967606427 -0.784072175222048
lowerneck -5.780391468129131 1.48644399516875 4.564914698839285
upperneck 18.034585870500646 2.9414871307574213 -8.344013885081075
head 6.589207541468743 1.074100845279398 -3.224788496714208
rclavicle 1.9506176831399982E-16 -2.034591029232992E-15
rhumerus 19.88568907316847 14.346920403272593 -47.737996580288026
rradius 72.23003843363888
rwrist 27.130295578552527
rhand -34.62965594698389 -57.10520905808919
rfingers 7.125020000000035
rthumb -7.782664139811583 -87.15976832538887
lclavicle -1.2245366608123768E-16 -4.486537128952867E-16
lhumerus 21.029228383436195 -12.45467550600443 45.30249680215249
lradius 70.02869538650806
lwrist -22.26438114549977
lhand -44.783281022188234 -70.24658824578033
lfingers 7.125020000000026
lthumb -17.5713703261952 -40.92492895232007
rfemur -24.697252673186018 -2.3149245503175218 17.111217530116505
rtibia 54.50937312046252
rfoot -28.994374039470166 -16.654631585942347
rtoes -18.495659594490526
lfemur -25.90128055287221 2.4394686749700174 -18.063883105098068
ltibia 53.19818280921218
lfoot -30.79093250481909 -3.4574571946257273
ltoes -20.87520195678118
40
root 0 0 0 1.0392908474096734 -3.672787528604788 1.8302417758235712
lowerback 11.97866585937941 0.8494524404886947 -0.0627768018980793
upperback -4.2304406129943395 1.0787179838865797 -0.5427267096012129
thorax -11.341310449614852 0.493772532140872 -0.7840355617737722
lowerneck -5.779387916548158 1.4863786064125448 4.565062056358352
upperneck 18.034024209569772 2.9414679017685463 -8.3444542022269
head 6.588858573508712 1.0740728454918758 -3.224942400232627
rclavicle 1.8433298648759128E-16 -2.0263837353832295E-15
rhumerus 19.88708143107271 14.348705975096815 -47.73706332620271
rradius 72.2305802659097
rwrist 27.1290290831125
rhand -34.62533420984342 -57.099109371326136
rfingers 7.125020000000035
rthumb -7.778406295374841 -87.15338206329113
lclavicle -1.3362775831756787E-16 -4.386507339324961E-16
lhumerus 21.030592799753215 -12.456841794631105 45.30109979312658
lradius 70.02923096214064
lwrist -22.263882354558593
lhand -44.78206659678504 -70.23621657591045
lfingers 7.125020000000026
lthumb -17.57007260133036 -40.91484713152957
rfemur -24.695893155864958 -2.3136884968116345 17.111409417283724
rtibia 54.502590984092826
rfoot -28.995170441459884 -16.654428473450018
rtoes -18.494411544455307
lfemur -25.89753643313745 2.43915899465832 -18.06326640301624
ltibia 53.19361053439755
lfoot -30.794879753077595 -3.455422492608405
ltoes -20.88274171139394
41
root 0 0 0 1.039318151650779 -3.6726502467487334 1.8303278047191998
lowerback 11.978642915380403 0.8494791112988223 -0.06281079451152344
upperback -4.230479521235777 1.0787407436780199 -0.5427656185384635
thorax -11.341318267413401 0.493786013441487 -0.7840596273352234
lowerneck -5.779756976485449 1.4864057656586858 4.565047190240413
upperneck 18.034247544060563 2.941471122948428 -8.344340230615385
head 6.588989453266799 1.0740898170622257 -3.22491251323796
rclavicle 2.0731540396235117E-16 -2.0347009721081037E-15
rhumerus 19.88763052532324 14.348894615342402 -47.737787198669096
rradius 72.23149234806296
rwrist 27.12973538744196
rhand -34.62830753549408 -57.10389783805387
rfingers 7.125020000000035
rthumb -7.781384749721429 -87.15841659415649
lclavicle -1.1068147876093976E-16 -4.504349222402492E-16
lhumerus 21.029564165715634 -12.455440989797 45.30150721898566
lradius 70.02925460390797
lwrist -22.264735195627672
lhand -44.782666004913885 -70.24345354316245
lfingers 7.125020000000026
lthumb -17.570771753259624 -40.921767592487356
rfemur -24.696782217414242 -2.314719446837372 17.111227110425432
rtibia 54.50819551996603
rfoot -28.994993410703454 -16.654655793912973
rtoes -18.496601534027555
lfemur -25.89970508755239 2.4394851456378297 -18.063609083906524
ltibia 53.196430186873734
lfoot -30.791701357913528 -3.4570261243597744
ltoes -20.8788494605313
